# xmcd
#
# Track frame offsets: 
#        150
#        28242
#        40137
#        50917
#        68827
#        87700
#        110755
#        124632
#
# Disc length: 1907 seconds
#
# Revision: 6
# Processed by: cddbd v1.5.2PL0 Copyright (c) Steve Scherf et al.
# Submitted via: ExactAudioCopy v0.99pb5
#
DISCID=76077108
DTITLE=Johnny Cash - Bitter Tears: Ballads of the American Indian
DYEAR=1964
DGENRE=Native American
TTITLE0=As Long as the Grass Shall Grow
TTITLE1=Apache Tears
TTITLE2=Custer
TTITLE3=The Talking Leaves
TTITLE4=The Ballad of Ira Hayes
TTITLE5=Drums
TTITLE6=White Girl
TTITLE7=The Vanishing Race
EXTD=Ballads of the American Indian\nLabel: Columbia\nCK 66507
EXTT0=
EXTT1=
EXTT2=
EXTT3=
EXTT4=
EXTT5=
EXTT6=
EXTT7=
PLAYORDER=
